<svg width="80" height="80" viewBox="0 0 80 80" fill="none" xmlns="http://www.w3.org/2000/svg">
<g clip-path="url(#clip0_124_1841)">
<path d="M64.6845 54.7113C64.6404 55.9942 64.2503 57.3233 63.4917 58.7748C63.4815 58.7941 63.4712 58.8134 63.4607 58.8324L61.3504 62.672C60.8325 63.6811 59.7814 64.3716 58.5689 64.3716H54.4006C51.763 64.3716 49.5118 66.3704 49.1637 69.0211L48.5225 73.9034C48.433 74.5846 48.1216 75.2173 47.6362 75.7036C47.198 76.1428 43.0439 79.9944 32.2812 79.9944C21.5185 79.9944 17.3644 76.143 16.926 75.7036C16.4408 75.2173 16.1291 74.5846 16.0397 73.9034L15.3987 69.0213C15.0507 66.3706 12.7993 64.3716 10.1618 64.3716H5.99475C4.85491 64.3716 3.80553 63.7509 3.25654 62.752C3.25654 62.752 1.08154 58.7941 1.07154 58.7749C-0.150477 56.437 -0.336389 53.6836 0.561298 51.2207C1.07763 49.8043 1.93204 48.5492 3.02908 47.5552C1.53085 43.319 0.848132 38.589 0.848132 35.3513C0.848132 31.4292 1.77628 27.5893 3.60696 23.9389C5.30938 20.5439 7.70936 17.4682 10.7399 14.7975C16.7564 9.4956 24.6065 6.439 32.2779 6.41088C32.2786 6.41088 35.5603 6.4076 36.8679 6.60054C38.5752 6.85222 39.755 8.44028 39.5033 10.1474C39.2743 11.7 37.9399 12.8167 36.4161 12.8167C36.2642 12.8167 33.7563 12.66 32.3025 12.66C19.1103 12.66 7.0971 23.5219 7.0971 35.3512C7.0971 38.4595 7.9173 43.5686 9.71814 47.4415C10.0779 48.215 10.1056 49.1022 9.795 49.8968C9.48442 50.6914 8.86216 51.3244 8.07321 51.6487C7.30176 51.9659 6.71903 52.5739 6.43219 53.3605C6.13333 54.1806 6.19191 55.0653 6.5967 55.8555L7.84262 58.1225H10.162C15.9249 58.1225 20.84 62.4582 21.5951 68.2078L22.0573 71.73C23.3837 72.4663 26.5176 73.7453 32.2814 73.7453C38.0451 73.7453 41.179 72.4661 42.5052 71.73L42.9677 68.2077C43.7224 62.4582 48.6375 58.1225 54.4006 58.1225H56.7201L57.9673 55.8533C58.3629 55.0897 58.4327 54.6766 58.4389 54.4972C58.4797 53.3054 57.6705 52.1282 56.4711 51.635C54.8751 50.9788 54.1131 49.153 54.7693 47.557C55.4256 45.9609 57.2515 45.1995 58.8475 45.8552C62.469 47.3443 64.8148 50.9032 64.6845 54.7113ZM28.1921 59.8113L32.6629 62.1844L37.1337 59.8113C39.5978 59.8113 34.6185 50.5062 34.6185 50.5062C33.5384 49.4128 31.7871 49.4128 30.7071 50.5062C30.7071 50.5062 25.7279 59.8113 28.1921 59.8113ZM50.9416 40.9054C50.9416 39.3744 49.9481 38.9193 48.5211 38.9068C46.7823 38.8915 44.3997 39.5745 42.3859 39.5745H40.0484C37.6022 39.5968 35.9438 39.8762 35.9438 42.5014C35.9438 45.8978 42.3704 48.5926 46.0368 48.5926C49.7031 48.5926 50.9416 44.3018 50.9416 40.9054ZM24.4979 39.5853H22.0025C20.147 39.5853 17.9818 38.7502 16.2885 38.7502C14.5725 38.7502 13.4468 39.0663 13.4468 40.7178C13.4468 44.0612 14.6853 48.4364 18.3518 48.4364C22.0183 48.4364 28.4447 45.7836 28.4447 42.4402C28.4447 39.9118 26.8574 39.6211 24.4979 39.5853ZM80 19.378C80 20.8581 78.9617 22.1349 77.5127 22.4369L73.4289 23.2876C73.1784 24.1079 72.8471 24.907 72.4435 25.6647C72.4524 25.6785 72.461 25.6924 72.4696 25.7064L74.6895 29.2953C75.4678 30.5537 75.2569 32.1855 74.1841 33.2045C73.1109 34.2234 71.4705 34.3501 70.254 33.5078L66.9126 31.1949C66.1532 31.5991 65.3552 31.9295 64.5373 32.1791L63.6866 36.2629C63.3847 37.7118 62.1078 38.7502 60.6277 38.7502C59.1476 38.7502 57.8707 37.7119 57.5688 36.2629L56.7181 32.1791C55.8979 31.9287 55.0988 31.5975 54.3412 31.194L50.7917 33.5439C49.5525 34.3641 47.9078 34.1984 46.8573 33.1482C45.8068 32.0976 45.6414 30.4527 46.4616 29.2138L48.8114 25.6644C48.4071 24.9045 48.0762 24.1057 47.8264 23.2874L43.7426 22.4368C42.2937 22.1348 41.2553 20.8579 41.2553 19.3778C41.2553 17.8977 42.2936 16.6208 43.7426 16.3189L47.8264 15.4682C48.0768 14.648 48.408 13.8489 48.8115 13.0913L46.4616 9.54184C45.6414 8.30295 45.807 6.65803 46.8573 5.6074C47.9081 4.55676 49.553 4.39116 50.7917 5.21167L54.3411 7.5615C55.101 7.15718 55.8998 6.82629 56.7181 6.57648L57.5688 2.49268C57.8707 1.04382 59.1476 0.00537109 60.6277 0.00537109C62.1078 0.00537109 63.3847 1.04366 63.6866 2.49268L64.5373 6.57648C65.3577 6.82691 66.1569 7.15827 66.9145 7.56181L70.3355 5.34946C71.5726 4.54942 73.2 4.72221 74.2417 5.76362C75.2833 6.80535 75.4558 8.43294 74.6559 9.66979L72.4437 13.0907C72.8482 13.8508 73.1791 14.6496 73.4289 15.468L77.5127 16.3187C78.9615 16.6208 80 17.8979 80 19.378ZM68.5467 19.378C68.0623 18.771 67.6878 18.0688 67.4541 17.2993C67.3207 16.86 67.1427 16.431 66.9256 16.0244C66.5461 15.3138 66.3139 14.5511 66.2271 13.7783C65.4542 13.6916 64.6915 13.4593 63.9807 13.0796C63.5743 12.8628 63.1453 12.685 62.7062 12.5514C61.9367 12.3175 61.2345 11.9431 60.6275 11.4588C60.0206 11.9432 59.3183 12.3177 58.5489 12.5514C58.1096 12.6848 57.6806 12.8628 57.274 13.0799C56.5633 13.4594 55.8004 13.6917 55.0274 13.7784C54.941 14.5516 54.7087 15.3143 54.3292 16.0248C54.1124 16.4312 53.9346 16.8602 53.801 17.2993C53.5671 18.0688 53.1926 18.771 52.7083 19.378C53.1928 19.9849 53.5673 20.6872 53.801 21.4566C53.9344 21.8959 54.1124 22.3249 54.3295 22.7316C54.709 23.4422 54.9413 24.2051 55.028 24.978C55.8013 25.0645 56.5637 25.2967 57.2744 25.6763C57.6808 25.8931 58.1098 26.0709 58.5489 26.2045C59.3183 26.4384 60.0206 26.8129 60.6275 27.2972C61.2345 26.8127 61.9367 26.4382 62.7062 26.2045C63.1455 26.0711 63.5745 25.8931 63.9811 25.676C64.6917 25.2965 65.4544 25.0643 66.2272 24.9775C66.3139 24.2046 66.5462 23.4419 66.9259 22.7311C67.1427 22.3247 67.3205 21.8957 67.4541 21.4566C67.688 20.6872 68.0624 19.9849 68.5467 19.378ZM60.6277 16.2534C58.902 16.2534 57.5031 17.6523 57.5031 19.378C57.5031 21.1037 58.902 22.5025 60.6277 22.5025C62.3534 22.5025 63.7523 21.1037 63.7523 19.378C63.7523 17.6523 62.3534 16.2534 60.6277 16.2534Z" fill="url(#paint0_linear_124_1841)"/>
</g>
<defs>
<linearGradient id="paint0_linear_124_1841" x1="-2.95367e-05" y1="40.0001" x2="80" y2="40.0001" gradientUnits="userSpaceOnUse">
<stop stop-color="#00F2FE"/>
<stop offset="0.0208" stop-color="#03EFFE"/>
<stop offset="0.2931" stop-color="#24D2FE"/>
<stop offset="0.5538" stop-color="#3CBDFE"/>
<stop offset="0.7956" stop-color="#4AB0FE"/>
<stop offset="1" stop-color="#4FACFE"/>
</linearGradient>
<clipPath id="clip0_124_1841">
<rect width="80" height="80" fill="white"/>
</clipPath>
</defs>
</svg>
